<svg xmlns="http://www.w3.org/2000/svg" fill="none" viewBox="0 0 80 80"><path fill="#8C4FFF" d="M0 0h80v80H0z"/><path fill="#fff" fill-rule="evenodd" d="M34 55.6h3v-2h-3v2Zm5 0h3v-2h-3v2Zm-12-41-13 6.5v40l13 4.5v-51Zm2 12.8v26.2h3v2h-3V67a1 1 0 0 1-1 1 1 1 0 0 1-.3 0l-15-5.1a1 1 0 0 1-.7-1V20.5c0-.4.2-.8.6-1l15-7.4a1 1 0 0 1 1 0c.2.2.4.6.4 1v12.3h3v2h-3Zm15 28.2h3v-2h-3v2Zm0-28.2h3v-2h-3v2Zm-5 0h3v-2h-3v2Zm-5 0h3v-2h-3v2ZM66 21l-13-6.5v51l13-4.4V21Zm2 40.8c0 .5-.3.8-.7 1l-15 5a1 1 0 0 1-.9 0 1 1 0 0 1-.4-1V55.7h-2v-2h2V27.4h-2v-2h2V13c0-.3.2-.7.5-.8a1 1 0 0 1 1-.1l15 7.4c.3.2.5.6.5 1v41.4ZM43 34l-2-.8-5 13 2 .8 5-13Zm6.7 6.3c.4-.4.4-1 0-1.4l-4-4-1.4 1.4 3.3 3.3-3.3 3.3 1.4 1.4 4-4Zm-15.4 4-4-4a1 1 0 0 1 0-1.4l4-4 1.4 1.4-3.3 3.3 3.3 3.3-1.4 1.4Z" clip-rule="evenodd"/></svg>